<svg data-v-423bf9ae="" xmlns="http://www.w3.org/2000/svg" viewBox="0 0 968 90" class="iconLeftSlogan"><!----><!----><!----><g data-v-423bf9ae="" id="7503426f-14dd-4b20-b337-7bf0e56e4d9a" fill="#000000" transform="matrix(4.4576526063226485,0,0,4.4576526063226485,83.02311398468873,-17.20654013240341)"><path d="M9.31 14.35L6.13 4.58L3.50 4.58L0.28 14.35L2.44 14.35L3.14 12.03L6.40 12.03L7.10 14.35ZM5.88 10.22L3.64 10.22L4.72 6.51L4.79 6.51ZM16.44 14.35L16.44 12.74L12.67 12.74L16.34 8.62L16.34 7.00L10.40 7.00L10.40 8.61L13.93 8.61L10.28 12.71L10.28 14.35ZM22.29 14.35L24.36 14.35L24.36 7.00L22.29 7.00L22.29 11.77C22.29 12.47 21.63 12.84 20.99 12.84C20.23 12.84 19.94 12.33 19.94 11.44L19.94 7.00L17.86 7.00L17.86 11.62C17.86 13.47 18.66 14.52 20.16 14.52C21.36 14.52 21.97 13.86 22.22 13.12L22.29 13.12ZM28.36 14.35L28.36 10.05C28.36 9.20 28.95 8.93 30.16 8.93L30.67 8.93L30.67 7.00L30.31 7.00C29.16 7.00 28.60 7.78 28.43 8.60L28.36 8.60L28.36 7.00L26.29 7.00L26.29 14.35ZM34.94 14.52C36.29 14.52 37.37 14.06 38.02 13.30L36.99 12.01C36.53 12.49 36.05 12.89 35.18 12.89C34.08 12.89 33.56 12.28 33.56 11.31L33.56 11.20L38.28 11.20L38.28 10.58C38.28 8.60 37.30 6.83 34.86 6.83C32.65 6.83 31.42 8.34 31.42 10.67C31.42 13.02 32.69 14.52 34.94 14.52ZM34.90 8.36C35.73 8.36 36.13 8.96 36.13 9.86L36.13 9.98L33.56 9.98L33.56 9.87C33.56 8.96 34.08 8.36 34.90 8.36ZM43.11 4.58L43.11 10.35C43.11 13.23 44.14 14.52 46.94 14.52C49.74 14.52 50.78 13.23 50.78 10.35L50.78 4.58L48.71 4.58L48.71 10.57C48.71 11.94 48.20 12.63 46.94 12.63C45.68 12.63 45.18 11.94 45.18 10.57L45.18 4.58ZM55.26 14.52C57.15 14.52 58.41 13.48 58.41 12.07C58.41 10.79 57.58 10.07 55.99 9.86L55.16 9.74C54.56 9.66 54.39 9.45 54.39 9.06C54.39 8.69 54.67 8.44 55.37 8.44C55.99 8.44 56.60 8.74 57.06 9.20L58.25 7.98C57.51 7.25 56.80 6.83 55.26 6.83C53.51 6.83 52.40 7.81 52.40 9.23C52.40 10.56 53.21 11.28 54.88 11.49L55.68 11.59C56.20 11.66 56.42 11.84 56.42 12.21C56.42 12.64 56.14 12.91 55.33 12.91C54.53 12.91 53.90 12.54 53.38 11.97L52.16 13.20C52.92 14.04 53.84 14.52 55.26 14.52ZM62.89 14.52C64.23 14.52 65.31 14.06 65.97 13.30L64.93 12.01C64.47 12.49 63.99 12.89 63.13 12.89C62.02 12.89 61.50 12.28 61.50 11.31L61.50 11.20L66.22 11.20L66.22 10.58C66.22 8.60 65.24 6.83 62.80 6.83C60.59 6.83 59.36 8.34 59.36 10.67C59.36 13.02 60.63 14.52 62.89 14.52ZM62.85 8.36C63.67 8.36 64.08 8.96 64.08 9.86L64.08 9.98L61.50 9.98L61.50 9.87C61.50 8.96 62.02 8.36 62.85 8.36ZM69.76 14.35L69.76 10.05C69.76 9.20 70.35 8.93 71.55 8.93L72.07 8.93L72.07 7.00L71.71 7.00C70.56 7.00 70 7.78 69.83 8.60L69.76 8.60L69.76 7.00L67.69 7.00L67.69 14.35ZM82.96 14.35L84.76 14.35L84.76 8.90L80.91 8.90L80.91 10.68L82.73 10.68L82.73 11.17C82.73 12.12 81.87 12.63 80.81 12.63C79.49 12.63 78.64 11.87 78.64 10.25L78.64 8.68C78.64 7.06 79.49 6.30 80.81 6.30C81.94 6.30 82.54 6.92 82.84 7.67L84.57 6.68C83.85 5.18 82.54 4.41 80.81 4.41C78.16 4.41 76.38 6.22 76.38 9.51C76.38 12.78 78.15 14.52 80.39 14.52C81.86 14.52 82.75 13.78 82.89 12.80L82.96 12.80ZM88.79 14.35L88.79 10.05C88.79 9.20 89.38 8.93 90.58 8.93L91.10 8.93L91.10 7.00L90.73 7.00C89.59 7.00 89.03 7.78 88.86 8.60L88.79 8.60L88.79 7.00L86.72 7.00L86.72 14.35ZM95.28 14.52C97.44 14.52 98.73 13.03 98.73 10.67C98.73 8.30 97.44 6.83 95.28 6.83C93.13 6.83 91.84 8.30 91.84 10.67C91.84 13.03 93.13 14.52 95.28 14.52ZM95.28 12.88C94.47 12.88 94.00 12.35 94.00 11.42L94.00 9.93C94.00 9.00 94.47 8.47 95.28 8.47C96.10 8.47 96.57 9.00 96.57 9.93L96.57 11.42C96.57 12.35 96.10 12.88 95.28 12.88ZM104.54 14.35L106.61 14.35L106.61 7.00L104.54 7.00L104.54 11.77C104.54 12.47 103.88 12.84 103.24 12.84C102.48 12.84 102.19 12.33 102.19 11.44L102.19 7.00L100.11 7.00L100.11 11.62C100.11 13.47 100.91 14.52 102.41 14.52C103.61 14.52 104.22 13.86 104.47 13.12L104.54 13.12ZM108.54 17.15L110.61 17.15L110.61 13.12L110.68 13.12C110.89 13.92 111.71 14.52 112.66 14.52C114.52 14.52 115.49 13.16 115.49 10.67C115.49 8.18 114.52 6.83 112.66 6.83C111.71 6.83 110.89 7.42 110.68 8.23L110.61 8.23L110.61 7.00L108.54 7.00ZM111.97 12.84C111.19 12.84 110.61 12.43 110.61 11.76L110.61 9.59C110.61 8.92 111.19 8.51 111.97 8.51C112.76 8.51 113.33 9.11 113.33 10.04L113.33 11.31C113.33 12.24 112.76 12.84 111.97 12.84ZM126.32 14.35L128.45 14.35L128.45 4.58L126.32 4.58L126.32 8.47L122.60 8.47L122.60 4.58L120.47 4.58L120.47 14.35L122.60 14.35L122.60 10.35L126.32 10.35ZM133.56 14.52C134.90 14.52 135.98 14.06 136.64 13.30L135.60 12.01C135.14 12.49 134.67 12.89 133.80 12.89C132.69 12.89 132.17 12.28 132.17 11.31L132.17 11.20L136.89 11.20L136.89 10.58C136.89 8.60 135.91 6.83 133.48 6.83C131.26 6.83 130.03 8.34 130.03 10.67C130.03 13.02 131.31 14.52 133.56 14.52ZM133.52 8.36C134.34 8.36 134.75 8.96 134.75 9.86L134.75 9.98L132.17 9.98L132.17 9.87C132.17 8.96 132.69 8.36 133.52 8.36ZM141.36 14.35L141.36 12.74L140.43 12.74L140.43 3.99L138.36 3.99L138.36 12.33C138.36 13.64 139.01 14.35 140.42 14.35ZM145.10 14.52C146.99 14.52 148.25 13.48 148.25 12.07C148.25 10.79 147.42 10.07 145.82 9.86L145.00 9.74C144.40 9.66 144.23 9.45 144.23 9.06C144.23 8.69 144.51 8.44 145.21 8.44C145.82 8.44 146.44 8.74 146.90 9.20L148.09 7.98C147.35 7.25 146.64 6.83 145.10 6.83C143.35 6.83 142.24 7.81 142.24 9.23C142.24 10.56 143.05 11.28 144.72 11.49L145.52 11.59C146.03 11.66 146.26 11.84 146.26 12.21C146.26 12.64 145.98 12.91 145.17 12.91C144.37 12.91 143.74 12.54 143.22 11.97L142.00 13.20C142.76 14.04 143.68 14.52 145.10 14.52ZM150.70 6.22C151.54 6.22 151.90 5.78 151.90 5.19L151.90 4.89C151.90 4.30 151.54 3.86 150.70 3.86C149.86 3.86 149.49 4.30 149.49 4.89L149.49 5.19C149.49 5.78 149.86 6.22 150.70 6.22ZM149.66 14.35L151.73 14.35L151.73 7.00L149.66 7.00ZM155.74 14.35L155.74 9.59C155.74 8.86 156.39 8.51 157.07 8.51C157.82 8.51 158.09 8.97 158.09 9.91L158.09 14.35L160.16 14.35L160.16 9.74C160.16 7.90 159.36 6.83 157.86 6.83C156.70 6.83 156.09 7.48 155.82 8.25L155.74 8.25L155.74 7.00L153.66 7.00L153.66 14.35ZM168.81 14.88C168.81 13.52 168.04 12.74 166.25 12.74L164.12 12.74C163.49 12.74 163.24 12.53 163.24 12.18C163.24 11.93 163.37 11.72 163.56 11.59C163.94 11.69 164.37 11.75 164.86 11.75C166.99 11.75 168.01 10.78 168.01 9.31C168.01 8.37 167.61 7.62 166.75 7.21L166.75 7.13L168.38 7.13L168.38 5.59L167.22 5.59C166.52 5.59 166.11 5.92 166.11 6.69L166.11 6.97C165.75 6.87 165.33 6.83 164.86 6.83C162.75 6.83 161.71 7.83 161.71 9.31C161.71 10.26 162.15 11.00 163.03 11.41L163.03 11.47C162.34 11.61 161.66 12.00 161.66 12.77C161.66 13.40 162.02 13.93 162.72 14.06L162.72 14.21C161.87 14.32 161.35 14.80 161.35 15.61C161.35 16.67 162.29 17.32 164.84 17.32C167.83 17.32 168.81 16.44 168.81 14.88ZM166.87 15.16C166.87 15.69 166.45 15.95 165.33 15.95L164.49 15.95C163.37 15.95 162.95 15.69 162.95 15.16C162.95 14.94 163.03 14.69 163.21 14.50L165.73 14.50C166.56 14.50 166.87 14.74 166.87 15.16ZM164.86 10.39C164.05 10.39 163.65 10.02 163.65 9.38L163.65 9.21C163.65 8.57 164.05 8.20 164.86 8.20C165.68 8.20 166.08 8.57 166.08 9.21L166.08 9.38C166.08 10.02 165.68 10.39 164.86 10.39ZM169.74 14.35L171.81 14.35L171.81 13.12L171.88 13.12C172.09 13.92 172.90 14.52 173.85 14.52C175.71 14.52 176.68 13.16 176.68 10.67C176.68 8.18 175.71 6.83 173.85 6.83C172.90 6.83 172.09 7.42 171.88 8.23L171.81 8.23L171.81 3.99L169.74 3.99ZM173.17 12.84C172.38 12.84 171.81 12.43 171.81 11.76L171.81 9.59C171.81 8.92 172.38 8.51 173.17 8.51C173.95 8.51 174.52 9.11 174.52 10.04L174.52 11.31C174.52 12.24 173.95 12.84 173.17 12.84ZM181.23 14.52C183.39 14.52 184.67 13.03 184.67 10.67C184.67 8.30 183.39 6.83 181.23 6.83C179.07 6.83 177.79 8.30 177.79 10.67C177.79 13.03 179.07 14.52 181.23 14.52ZM181.23 12.88C180.42 12.88 179.94 12.35 179.94 11.42L179.94 9.93C179.94 9.00 180.42 8.47 181.23 8.47C182.04 8.47 182.52 9.00 182.52 9.93L182.52 11.42C182.52 12.35 182.04 12.88 181.23 12.88ZM188.22 14.35L188.22 10.05C188.22 9.20 188.80 8.93 190.01 8.93L190.53 8.93L190.53 7.00L190.16 7.00C189.01 7.00 188.45 7.78 188.29 8.60L188.22 8.60L188.22 7.00L186.14 7.00L186.14 14.35ZM198.41 14.88C198.41 13.52 197.64 12.74 195.85 12.74L193.72 12.74C193.09 12.74 192.84 12.53 192.84 12.18C192.84 11.93 192.96 11.72 193.16 11.59C193.54 11.69 193.97 11.75 194.46 11.75C196.59 11.75 197.61 10.78 197.61 9.31C197.61 8.37 197.20 7.62 196.35 7.21L196.35 7.13L197.97 7.13L197.97 5.59L196.81 5.59C196.11 5.59 195.71 5.92 195.71 6.69L195.71 6.97C195.34 6.87 194.92 6.83 194.46 6.83C192.35 6.83 191.31 7.83 191.31 9.31C191.31 10.26 191.74 11.00 192.63 11.41L192.63 11.47C191.94 11.61 191.25 12.00 191.25 12.77C191.25 13.40 191.62 13.93 192.32 14.06L192.32 14.21C191.46 14.32 190.95 14.80 190.95 15.61C190.95 16.67 191.88 17.32 194.43 17.32C197.43 17.32 198.41 16.44 198.41 14.88ZM196.46 15.16C196.46 15.69 196.04 15.95 194.92 15.95L194.08 15.95C192.96 15.95 192.54 15.69 192.54 15.16C192.54 14.94 192.63 14.69 192.81 14.50L195.33 14.50C196.15 14.50 196.46 14.74 196.46 15.16ZM194.46 10.39C193.65 10.39 193.24 10.02 193.24 9.38L193.24 9.21C193.24 8.57 193.65 8.20 194.46 8.20C195.27 8.20 195.68 8.57 195.68 9.21L195.68 9.38C195.68 10.02 195.27 10.39 194.46 10.39Z"></path></g><defs data-v-423bf9ae=""><linearGradient data-v-423bf9ae="" gradientTransform="rotate(25)" id="47a866d6-cadf-42e2-aea2-945c6764a743" x1="0%" y1="0%" x2="100%" y2="0%"><stop data-v-423bf9ae="" offset="0%" style="stop-color: rgb(40, 139, 88); stop-opacity: 1;"></stop><stop data-v-423bf9ae="" offset="100%" style="stop-color: rgb(21, 34, 241); stop-opacity: 1;"></stop></linearGradient></defs><g data-v-423bf9ae="" id="ea5f6416-bb35-4029-9ed5-4edf581ad772" transform="matrix(2.8125,0,0,2.8125,-12.426001459360123,0)" stroke="none" fill="url(#47a866d6-cadf-42e2-aea2-945c6764a743)"><path d="M27.377 11.377L16 0 4.623 11.377 16 22.753l11.377-11.376zM16 6.026l5.35 5.35L16 16.727l-5.35-5.35L16 6.026zM27.426 14.969l-5.664 5.664V32h5.664zM10.238 20.633l-5.664-5.664V32h5.664z"></path></g><!----><g data-v-423bf9ae="" id="82b5fb70-5b3f-46ab-9b85-62221e666f19" fill="#000000" transform="matrix(2.325037849442558,0,0,2.325037849442558,84.29450038320323,55.11741783431188)"><path d="M4.93 7.81L8.81 2.21L7.53 2.21L4.40 6.72L1.26 2.21L-0.01 2.21L3.88 7.81L3.88 11.48L4.93 11.48ZM20.55 2.10C17.74 2.10 15.85 4.21 15.85 6.85C15.85 9.48 17.74 11.59 20.55 11.59C23.37 11.59 25.26 9.48 25.26 6.85C25.26 4.21 23.37 2.10 20.55 2.10ZM20.55 10.57C18.30 10.57 16.90 8.93 16.90 6.85C16.90 4.76 18.30 3.12 20.55 3.12C22.81 3.12 24.21 4.76 24.21 6.85C24.21 8.93 22.81 10.57 20.55 10.57ZM40.66 2.21L40.66 7.52C40.66 9.67 39.23 10.57 37.76 10.57C36.29 10.57 34.87 9.67 34.87 7.52L34.87 2.21L33.82 2.21L33.82 7.49C33.82 9.95 35.45 11.59 37.76 11.59C40.08 11.59 41.71 9.94 41.71 7.49L41.71 2.21ZM51.91 7.92L55.13 7.92L57.37 11.48L58.62 11.48L56.18 7.74C57.22 7.50 58.42 6.90 58.42 5.11C58.42 3.35 57.20 2.21 55.30 2.21L50.86 2.21L50.86 11.48L51.91 11.48ZM51.91 3.21L55.17 3.21C56.49 3.21 57.37 3.93 57.37 5.11C57.37 6.55 56.11 6.93 55.12 6.93L51.91 6.93ZM77.21 2.21L77.21 11.48L83.31 11.48L83.31 10.47L78.26 10.47L78.26 2.21ZM95.38 2.10C92.57 2.10 90.68 4.21 90.68 6.85C90.68 9.48 92.57 11.59 95.38 11.59C98.20 11.59 100.09 9.48 100.09 6.85C100.09 4.21 98.20 2.10 95.38 2.10ZM95.38 10.57C93.13 10.57 91.73 8.93 91.73 6.85C91.73 4.76 93.13 3.12 95.38 3.12C97.64 3.12 99.04 4.76 99.04 6.85C99.04 8.93 97.64 10.57 95.38 10.57ZM112.74 10.57C110.49 10.57 109.23 8.93 109.23 6.85C109.23 4.76 110.49 3.12 112.74 3.12C114.27 3.12 115.28 3.85 115.75 4.98L116.86 4.98C116.27 3.29 114.76 2.10 112.66 2.10C109.87 2.10 108.18 4.21 108.18 6.85C108.18 9.48 109.87 11.59 112.66 11.59C114.76 11.59 116.27 10.40 116.86 8.71L115.75 8.71C115.28 9.84 114.27 10.57 112.74 10.57ZM129.58 2.21L128.27 2.21L124.33 11.48L125.50 11.48L126.63 8.79L131.22 8.79L132.36 11.48L133.52 11.48ZM127.04 7.83L128.93 3.30L130.82 7.83ZM141.69 2.21L141.69 11.48L147.80 11.48L147.80 10.47L142.74 10.47L142.74 2.21ZM170.11 10.57C167.86 10.57 166.60 8.93 166.60 6.85C166.60 4.76 167.86 3.12 170.11 3.12C171.64 3.12 172.65 3.85 173.12 4.98L174.23 4.98C173.64 3.29 172.13 2.10 170.03 2.10C167.24 2.10 165.55 4.21 165.55 6.85C165.55 9.48 167.24 11.59 170.03 11.59C172.13 11.59 173.64 10.40 174.23 8.71L173.12 8.71C172.65 9.84 171.64 10.57 170.11 10.57ZM186.84 2.10C184.03 2.10 182.14 4.21 182.14 6.85C182.14 9.48 184.03 11.59 186.84 11.59C189.66 11.59 191.55 9.48 191.55 6.85C191.55 4.21 189.66 2.10 186.84 2.10ZM186.84 10.57C184.59 10.57 183.19 8.93 183.19 6.85C183.19 4.76 184.59 3.12 186.84 3.12C189.10 3.12 190.50 4.76 190.50 6.85C190.50 8.93 189.10 10.57 186.84 10.57ZM208.03 2.21L204.76 6.61L201.45 2.21L200.23 2.21L200.23 11.48L201.28 11.48L201.28 3.81L204.76 8.22L208.19 3.81L208.19 11.48L209.24 11.48L209.24 2.21ZM226.31 2.21L223.05 6.61L219.73 2.21L218.51 2.21L218.51 11.48L219.56 11.48L219.56 3.81L223.05 8.22L226.48 3.81L226.48 11.48L227.53 11.48L227.53 2.21ZM243.52 2.21L243.52 7.52C243.52 9.67 242.09 10.57 240.62 10.57C239.15 10.57 237.73 9.67 237.73 7.52L237.73 2.21L236.68 2.21L236.68 7.49C236.68 9.95 238.31 11.59 240.62 11.59C242.94 11.59 244.57 9.94 244.57 7.49L244.57 2.21ZM260.67 2.21L260.67 10.01L254.94 2.21L253.72 2.21L253.72 11.48L254.77 11.48L254.77 3.65L260.50 11.48L261.72 11.48L261.72 2.21ZM272.03 2.21L270.98 2.21L270.98 11.48L272.03 11.48ZM287.88 2.21L280.36 2.21L280.36 3.22L283.60 3.22L283.60 11.48L284.65 11.48L284.65 3.22L287.88 3.22ZM300.01 7.81L303.88 2.21L302.61 2.21L299.47 6.72L296.34 2.21L295.06 2.21L298.96 7.81L298.96 11.48L300.01 11.48Z"></path></g></svg>